<?xml version="1.0" encoding="UTF-8"?> <svg xmlns="http://www.w3.org/2000/svg" xmlns:xlink="http://www.w3.org/1999/xlink" width="354px" height="56px" viewBox="0 0 354 56"><!-- Generator: Sketch 57.1 (83088) - https://sketch.com --><title>Group 3@2x</title><desc>Created with Sketch.</desc><defs><linearGradient x1="50%" y1="0%" x2="50%" y2="100%" id="linearGradient-1"><stop stop-color="#1387B0" offset="0%"></stop><stop stop-color="#084F78" offset="100%"></stop></linearGradient></defs><g id="Page-1" stroke="none" stroke-width="1" fill="none" fill-rule="evenodd"><g id="Home-Copy-5" transform="translate(-90.000000, -38.000000)"><g id="Group-3" transform="translate(90.000000, 38.000000)"><g id="Group-5"><g id="Group-2"><circle id="Oval" fill="url(#linearGradient-1)" cx="28" cy="28" r="28"></circle><g id="Group" transform="translate(13.502538, 5.685279)" fill="#FFFFFF"><path d="M11.4974084,44.9137056 C11.4974084,44.9137056 11.8762548,40.6887752 8.86139706,38.1187611 C5.13707502,34.9438835 4.77430478,33.8563778 4.78226169,33.5431472 C4.28730928,35.5182853 5.8371209,38.3575854 8.33234359,40.3741713 C10.8744958,42.4284597 11.4974084,44.9137056 11.4974084,44.9137056" id="Fill-1"></path><path d="M14.3553299,0 L8.87554826,11.9925179 C8.87554826,11.9925179 10.3310798,10.1935947 11.6154391,10.7075728 C12.8997985,11.2215508 12.3858274,12.1637681 12.3858274,14.5624081 C12.3858274,16.9608207 12.300355,25.2699809 11.6154391,26.9831652 C10.9305232,28.696577 10.0742079,31.6947065 7.67666132,28.3538492 C5.27934207,25.0129918 5.0224702,19.6164498 4.85107074,15.933092 C4.85107074,15.933092 6.39252928,16.6183203 7.41978944,17.7317878 L3.65241112,7.45245427 L0.14213198,17.8175266 C0.14213198,17.8175266 2.53945122,14.9906473 2.62492363,16.5325815 C2.71062336,18.0745156 2.11140721,28.696577 6.73487356,32.1229457 C11.3585672,35.5493144 14.1841578,39.832389 14.3553299,44.6294416 C14.5265021,39.832389 17.3520927,35.5493144 21.975559,32.1229457 C26.5992527,28.696577 26.0000365,18.0745156 26.0855089,16.5325815 C26.1712087,14.9906473 28.5685279,17.8175266 28.5685279,17.8175266 L25.0580215,7.45245427 L21.2906431,17.7317878 C22.3181306,16.6183203 23.8593618,15.933092 23.8593618,15.933092 C23.6881897,19.6164498 23.4313178,25.0129918 21.0337713,28.3538492 C18.636452,31.6947065 17.7801367,28.696577 17.0952208,26.9831652 C16.4103049,25.2699809 16.3246052,16.9608207 16.3246052,14.5624081 C16.3246052,12.1637681 15.8108614,11.2215508 17.0952208,10.7075728 C18.3795801,10.1935947 19.8351116,11.9925179 19.8351116,11.9925179 L14.3553299,0" id="Fill-6"></path><path d="M17.4975155,44.9137056 C17.4975155,44.9137056 18.120428,42.4284597 20.6625803,40.3741713 C23.157803,38.3575854 24.7076146,35.5182853 24.2126622,33.5431472 C24.2206191,33.8565027 23.8578488,34.9440084 20.1335268,38.1187611 C17.118669,40.6887752 17.4975155,44.9137056 17.4975155,44.9137056" id="Fill-10"></path></g><path d="M17.4572183,38.644264 C17.4734213,38.5598376 17.4884873,38.4742741 17.5072487,38.391269 C17.5072487,38.391269 17.4609137,38.4597766 17.4572183,38.644264" id="Fill-4" fill="#231F20"></path><path d="M39.6798376,38.644264 C39.6761421,38.4597766 39.6298071,38.391269 39.6298071,38.391269 C39.6485685,38.4742741 39.6636345,38.5598376 39.6798376,38.644264" id="Fill-8" fill="#231F20"></path></g></g><path d="M99.2272727,27.4890365 C99.2272727,32.7953754 97.9243861,36.8737399 95.3185737,39.7242525 C92.7127613,42.5747651 88.9778195,44 84.1136364,44 C79.2494532,44 75.5145115,42.5747651 72.9086991,39.7242525 C70.3028867,36.8737399 69,32.7807576 69,27.4451827 C69,22.1096079 70.3065058,18.0348978 72.9195566,15.2209302 C75.5326073,12.4069627 79.2784065,11 84.1570664,11 C89.0357262,11 92.7670489,12.417926 95.3511462,15.2538206 C97.9352435,18.0897152 99.2272727,22.1680797 99.2272727,27.4890365 Z M75.9090909,27.0767877 C75.9090909,30.6695642 76.5946391,33.3751042 77.9657559,35.193489 C79.3368728,37.0118739 81.3861458,37.9210526 84.1136364,37.9210526 C89.5833607,37.9210526 92.3181818,34.3063338 92.3181818,27.0767877 C92.3181818,19.8325772 89.5981037,16.2105263 84.1578657,16.2105263 C81.4303752,16.2105263 79.3737307,17.1233711 77.9878706,18.9490881 C76.6020106,20.7748052 75.9090909,23.4840113 75.9090909,27.0767877 Z M112.737307,43.1315789 L106.136364,43.1315789 L106.136364,11 L124.272727,11 L124.272727,16.5823673 L112.737307,16.5823673 L112.737307,24.8680071 L123.471957,24.8680071 L123.471957,30.4283966 L112.737307,30.4283966 L112.737307,43.1315789 Z M136.919126,43.1315789 L130.318182,43.1315789 L130.318182,11 L148.454545,11 L148.454545,16.5823673 L136.919126,16.5823673 L136.919126,24.8680071 L147.653775,24.8680071 L147.653775,30.4283966 L136.919126,30.4283966 L136.919126,43.1315789 Z M174.363636,34.6467066 C174.363636,37.5449247 173.330545,39.828335 171.264333,41.497006 C169.19812,43.165677 166.32359,44 162.640656,44 C159.247717,44 156.246317,43.3559612 153.636364,42.0678643 L153.636364,35.744511 C155.782325,36.7105837 157.59839,37.3912156 159.084613,37.7864271 C160.570836,38.1816387 161.930166,38.3792415 163.162644,38.3792415 C164.641618,38.3792415 165.776205,38.0938152 166.566441,37.5229541 C167.356677,36.952093 167.751789,36.1031327 167.751789,34.9760479 C167.751789,34.3466369 167.577794,33.7867623 167.229801,33.2964072 C166.881807,32.8060521 166.370699,32.3340009 165.696461,31.8802395 C165.022223,31.4264781 163.648393,30.7019345 161.574931,29.7065868 C159.631966,28.7844265 158.174764,27.8988732 157.203282,27.0499002 C156.231799,26.2009272 155.456075,25.2129132 154.876085,24.0858283 C154.296096,22.9587435 154.006105,21.6413914 154.006105,20.1337325 C154.006105,17.2940643 154.959449,15.0618844 156.866164,13.4371257 C158.77288,11.8123671 161.408168,11 164.772107,11 C166.425077,11 168.0019,11.1976028 169.502623,11.5928144 C171.003346,11.9880259 172.572919,12.5442413 174.21139,13.261477 L172.03644,18.5528942 C170.339971,17.8502959 168.937142,17.3599482 167.827912,17.0818363 C166.718682,16.8037245 165.627593,16.6646707 164.554612,16.6646707 C163.278635,16.6646707 162.299918,16.9647342 161.61843,17.5648703 C160.936942,18.1650063 160.596203,18.948099 160.596203,19.9141717 C160.596203,20.5143077 160.733949,21.0375893 161.009444,21.4840319 C161.284939,21.9304746 161.723549,22.3622734 162.325289,22.7794411 C162.927028,23.1966089 164.351606,23.9467677 166.599065,25.0299401 C169.571512,26.4644117 171.608694,27.9025211 172.710674,29.3443114 C173.812655,30.7861017 174.363636,32.5535491 174.363636,34.6467066 Z M205.454545,43.1315789 L198.771817,43.1315789 L198.771817,29.2635719 L186.24981,29.2635719 L186.24981,43.1315789 L179.545455,43.1315789 L179.545455,11 L186.24981,11 L186.24981,23.5932933 L198.771817,23.5932933 L198.771817,11 L205.454545,11 L205.454545,43.1315789 Z M242.590909,27.4890365 C242.590909,32.7953754 241.288022,36.8737399 238.68221,39.7242525 C236.076398,42.5747651 232.341456,44 227.477273,44 C222.61309,44 218.878148,42.5747651 216.272335,39.7242525 C213.666523,36.8737399 212.363636,32.7807576 212.363636,27.4451827 C212.363636,22.1096079 213.670142,18.0348978 216.283193,15.2209302 C218.896244,12.4069627 222.642043,11 227.520703,11 C232.399363,11 236.130685,12.417926 238.714783,15.2538206 C241.29888,18.0897152 242.590909,22.1680797 242.590909,27.4890365 Z M219.272727,27.0767877 C219.272727,30.6695642 219.958275,33.3751042 221.329392,35.193489 C222.700509,37.0118739 224.749782,37.9210526 227.477273,37.9210526 C232.946997,37.9210526 235.681818,34.3063338 235.681818,27.0767877 C235.681818,19.8325772 232.96174,16.2105263 227.521502,16.2105263 C224.794012,16.2105263 222.737367,17.1233711 221.351507,18.9490881 C219.965647,20.7748052 219.272727,23.4840113 219.272727,27.0767877 Z M256.409091,25.7631579 L258.640709,25.7631579 C260.827706,25.7631579 262.441894,25.4040675 263.483322,24.6858761 C264.524749,23.9676846 265.045455,22.839115 265.045455,21.3001332 C265.045455,19.7758085 264.513591,18.6912091 263.449847,18.0463025 C262.386104,17.4013958 260.738442,17.0789474 258.506812,17.0789474 L256.409091,17.0789474 L256.409091,25.7631579 Z M256.376557,30.8020196 L256.376557,43.1315789 L249.5,43.1315789 L249.5,11 L258.94972,11 C263.356653,11 266.61744,11.7948567 268.732176,13.3845939 C270.846913,14.9743312 271.904265,17.3882047 271.904265,20.626287 C271.904265,22.5163893 271.379286,24.1976761 270.329312,25.6701976 C269.279338,27.1427192 267.793129,28.2965435 265.870641,29.1317049 C270.750803,36.3551193 273.930254,41.0216973 275.409091,43.1315789 L267.778331,43.1315789 L260.036659,30.8020196 L256.376557,30.8020196 Z M297,43.1315789 L278.863636,43.1315789 L278.863636,11 L297,11 L297,16.5823673 L285.54092,16.5823673 L285.54092,23.6372489 L296.203034,23.6372489 L296.203034,29.2196162 L285.54092,29.2196162 L285.54092,37.505256 L297,37.505256 L297,43.1315789 Z M318.590909,43.1315789 L318.590909,11 L325.5,11 L325.5,43.1315789 L318.590909,43.1315789 Z M345.304183,43.1315789 L338.513999,43.1315789 L338.513999,16.6702786 L329.818182,16.6702786 L329.818182,11 L354,11 L354,16.6702786 L345.304183,16.6702786 L345.304183,43.1315789 Z" id="OFFSHOREIT" fill="#0A5881" fill-rule="nonzero"></path></g></g></g></svg> 